<?xml version="1.0" standalone="no"?>
<!DOCTYPE svg PUBLIC "-//W3C//DTD SVG 20010904//EN"
 "http://www.w3.org/TR/2001/REC-SVG-20010904/DTD/svg10.dtd">
<svg version="1.0" xmlns="http://www.w3.org/2000/svg"
 width="536.000000pt" height="364.000000pt" viewBox="0 0 536.000000 364.000000"
 preserveAspectRatio="xMidYMid meet">

<g transform="translate(0.000000,364.000000) scale(0.100000,-0.100000)"
fill="#000000" stroke="none">
<path d="M1834 3176 c-95 -30 -130 -77 -194 -261 -48 -138 -98 -247 -134 -290
l-24 -30 -11 28 c-10 27 -12 27 -96 27 -116 0 -125 -6 -125 -80 0 -48 4 -64
26 -89 14 -17 34 -31 45 -31 10 0 19 -4 19 -10 0 -5 -4 -10 -8 -10 -21 0 -106
-96 -127 -143 -21 -48 -23 -72 -30 -300 -5 -179 -4 -255 4 -275 14 -33 58 -62
95 -62 l26 0 0 -154 0 -155 27 -21 c26 -20 35 -21 261 -18 294 4 272 -12 272
199 l0 149 790 0 790 0 0 -149 c0 -211 -22 -195 274 -199 l236 -3 25 25 c24
25 25 28 25 176 l0 150 30 0 c19 0 42 11 62 29 l33 30 -3 248 c-4 316 -8 332
-103 425 -60 59 -66 68 -45 68 15 0 34 12 50 31 21 24 26 41 26 84 0 77 -11
85 -121 85 -87 0 -90 -1 -99 -26 -9 -22 -13 -24 -26 -14 -30 26 -85 139 -139
289 -30 85 -64 168 -75 186 -24 39 -82 79 -136 94 -60 17 -1566 14 -1620 -3z
m1594 -82 c65 -13 89 -48 151 -219 60 -166 89 -229 140 -305 l31 -45 -1097 -3
c-603 -1 -1098 0 -1100 2 -3 2 12 28 31 57 49 70 94 169 146 319 45 130 82
183 132 193 36 7 1532 8 1566 1z m-83 -939 c14 -13 25 -29 25 -35 0 -7 -226
-10 -720 -10 -494 0 -720 3 -720 10 0 6 11 22 25 35 l24 25 671 0 671 0 24
-25z m-1485 -51 c70 -66 70 -67 70 -120 l0 -54 -192 0 -192 0 -63 62 c-63 62
-63 63 -63 120 l0 58 185 0 185 0 70 -66z m2020 9 c0 -57 0 -58 -62 -120 l-62
-63 -193 0 -193 0 0 54 c0 53 0 54 70 120 l70 66 185 0 185 0 0 -57z m-620
-93 l0 -30 -610 0 -610 0 0 30 0 30 610 0 610 0 0 -30z m0 -120 l0 -30 -610 0
-610 0 0 30 0 30 610 0 610 0 0 -30z m-1330 -85 l0 -45 -120 0 -120 0 0 45 0
45 120 0 120 0 0 -45z m1680 0 l0 -45 -120 0 -120 0 0 45 0 45 120 0 120 0 0
-45z m-352 -32 l-3 -28 -605 0 -605 0 -3 28 -3 27 611 0 611 0 -3 -27z"/>
<path d="M370 3073 c0 -7 316 -419 600 -781 l89 -113 6 38 c12 68 26 107 61
165 31 51 33 60 22 80 -7 13 -12 58 -13 103 0 63 4 87 21 115 26 44 78 80 117
80 19 0 27 4 22 9 -6 5 -145 76 -310 159 l-300 151 -157 0 c-87 1 -158 -2
-158 -6z"/>
<path d="M4584 3063 c-16 -8 -155 -78 -309 -156 -269 -135 -279 -141 -243
-147 109 -19 160 -134 123 -273 -15 -58 -15 -58 11 -92 34 -45 64 -126 64
-175 0 -22 3 -40 8 -40 4 1 46 51 94 113 47 62 201 261 342 442 141 182 256
333 256 338 0 4 -71 7 -158 6 -122 0 -166 -4 -188 -16z"/>
<path d="M1312 793 l3 -377 26 -15 c24 -13 29 -13 53 2 l26 17 0 375 0 375
-55 0 -55 0 2 -377z"/>
<path d="M1520 935 c0 -221 1 -235 19 -245 29 -15 56 -12 74 8 15 16 17 48 17
245 l0 227 -55 0 -55 0 0 -235z"/>
<path d="M1740 800 c0 -357 1 -371 20 -390 25 -25 55 -25 80 0 19 19 20 33 20
390 l0 370 -60 0 -60 0 0 -370z"/>
<path d="M3480 797 c0 -350 1 -375 18 -390 23 -21 41 -21 70 -1 l22 15 0 375
0 374 -55 0 -55 0 0 -373z"/>
<path d="M3680 947 c0 -246 5 -267 59 -267 58 0 61 14 61 263 l0 227 -60 0
-60 0 0 -223z"/>
<path d="M3910 800 c0 -357 1 -371 20 -390 27 -27 55 -25 79 6 20 26 21 38 21
390 l0 364 -60 0 -60 0 0 -370z"/>
</g>
</svg>
